HIERARCHY
ROOT pelvis
{
  OFFSET 0 100 0
  CHANNELS 6 Xposition Yposition Zposition Zrotation Xrotation Yrotation
  JOINT pelvis_right_femur
  {
    OFFSET -10.78128 -3.44521 -0.5502486
    CHANNELS 3 Zrotation Xrotation Yrotation
    JOINT right_femur_tibia
    {
      OFFSET -0.8047443 -44.0398 -0.1307829
      CHANNELS 3 Zrotation Xrotation Yrotation
      JOINT right_tibia_foot
      {
        OFFSET 3.006224 -47.83518 -5
        CHANNELS 3 Zrotation Xrotation Yrotation
        End Site
        {
          OFFSET 0 -5 15
        }
      }
    }
  }
  JOINT pelvis_left_femur
  {
    OFFSET 10.78128 -3.44521 -0.5502486
    CHANNELS 3 Zrotation Xrotation Yrotation
    JOINT left_femur_tibia
    {
      OFFSET 0.8047443 -44.0398 -0.1307829
      CHANNELS 3 Zrotation Xrotation Yrotation
      JOINT left_tibia_foot
      {
        OFFSET -4.370144 -48.10324 -4.275266
        CHANNELS 3 Zrotation Xrotation Yrotation
        End Site
        {
          OFFSET 0 -5 15
        }
      }
    }
  }
  JOINT pelvis_spine1
  {
    OFFSET 0 6.468898 -3.129235
    CHANNELS 3 Zrotation Xrotation Yrotation
    JOINT spine1
    {
      OFFSET 0 23.15396 4.99043
      CHANNELS 3 Zrotation Xrotation Yrotation
      JOINT spine2
      {
        OFFSET 0 20.79997 -5.064912
        CHANNELS 3 Zrotation Xrotation Yrotation
        JOINT neck
        {
          OFFSET 0 14.38658 9.616178
          CHANNELS 3 Zrotation Xrotation Yrotation
          End Site
          {
            OFFSET 0 20 0
          }
        }
      }
      JOINT right_manubrium
      {
        OFFSET -5.722621 16.35077 3.967754
        CHANNELS 3 Zrotation Xrotation Yrotation
        JOINT right_clavicle
        {
          OFFSET -13.16364 1.694482 -4.693211
          CHANNELS 3 Zrotation Xrotation Yrotation
          JOINT right_humerus
          {
            OFFSET -28.5034 -0.3100689 -2.792744
            CHANNELS 3 Zrotation Xrotation Yrotation
            JOINT right_radius
            {
              OFFSET -25.15693 0.02248979 -1.271978
              CHANNELS 3 Zrotation Xrotation Yrotation
              End Site
              {
                OFFSET -15 0 0
              }
            }
          }
        }
      }
      JOINT left_manubrium
      {
        OFFSET 5.722621 16.35077 3.967754
        CHANNELS 3 Zrotation Xrotation Yrotation
        JOINT left_clavicle
        {
          OFFSET 13.16364 1.694482 -4.693211
          CHANNELS 3 Zrotation Xrotation Yrotation
          JOINT left_humerus
          {
            OFFSET 29.39168 -1.063119 -2.237045
            CHANNELS 3 Zrotation Xrotation Yrotation
            JOINT left_radius
            {
              OFFSET 24.59957 -0.9528479 0.9047498
              CHANNELS 3 Zrotation Xrotation Yrotation
              End Site
              {
                OFFSET 15 -0 -0
              }
            }
          }
        }
      }
    }
  }
}
MOTION
Frames: 23
Frame Time: 0.0416666666667
0 103.5113 0 2.637455 0.4916736 0.1986303 3.192887 -15.99632 11.65534 -0 35.3002 -0 -3.113164 -18.81844 -3.192516 -9.31772 9.428583 -22.20827 -0 4.709097 -0 21.85772 -9.547091 30.40686 -2.278415 -2.072733 4.542064 2.769814 10.04461 -7.122815 1.323433 21.31547 6.718341 2.7168 -25.11248 9.704775 5.526054 -18.6237 11.42269 86.07107 37.67586 -17.75696 -0 0 13.13795 -8.684793 8.845331 6.138923 5.354259 -19.72349 -1.601042 -90.5251 20.68627 19.50691 0 0 -16.61343 13.25118 11.73729 -1.821063
0.4119227 103.3076 1.732306 1.968663 1.3683 0.3514982 4.457787 -19.02556 12.61532 -0 35.64124 -0 -3.5121 -18.21451 -3.221817 -8.980461 9.51724 -22.2892 -0 5.078871 -0 22.39038 -9.72011 30.96012 -2.388008 -2.049405 4.22055 3.096606 10.00913 -7.519211 1.304298 20.93295 7.197697 2.933909 -25.90206 10.18498 5.458271 -18.74125 11.60633 87.01264 38.05704 -19.10887 -0 0 12.5401 -7.794893 8.767224 5.753038 5.769324 -20.08907 -1.669104 -89.61871 20.43609 18.33178 0 0 -19.518 14.17065 10.9543 -2.698406
0.7551283 102.9465 3.626445 1.36537 1.105162 0.5015649 4.691153 -21.29851 10.0738 -0 33.32706 -0 -4.657689 -15.60125 -2.582984 -8.154865 10.78358 -22.13621 -0 5.029757 -0 17.5688 -13.34968 28.96292 -2.306456 -2.116585 4.289131 3.117133 10.04619 -7.560197 1.308209 20.93485 7.13703 2.881311 -25.96847 10.1748 5.47696 -18.74323 11.5798 87.07651 37.82924 -19.36492 -0 0 12.54076 -7.631436 8.815221 5.597559 5.788351 -20.17698 -1.654854 -89.93085 20.82924 18.68132 0 0 -19.39805 13.97099 11.15538 -2.312011
1.056049 102.5629 5.690649 0.6662234 1.600577 0.5992572 5.619788 -24.3258 9.799358 -0 32.15817 -0 -5.216318 -13.96267 -2.43936 -7.549276 11.33348 -21.95042 -0 5.409335 -0 15.55357 -15.15504 28.19579 -2.249833 -2.174264 4.276989 3.22827 10.07645 -7.71065 1.307403 20.82791 7.20954 2.888463 -26.254 10.2986 5.469406 -18.78357 11.60452 87.40898 37.69643 -20.00936 -0 0 12.36883 -7.210237 8.842415 5.33274 5.925166 -20.37612 -1.670768 -89.99244 21.19259 18.70995 0 0 -20.16256 14.0026 11.12337 -2.119087
1.339635 102.0582 8.066514 0.1507499 1.92341 0.7087305 6.261348 -27.23436 8.732563 -0 29.50453 -0 -5.78631 -11.54137 -1.84628 -7.061261 11.86155 -21.21818 -0 5.931258 -0 14.03437 -16.63482 26.94183 -2.166585 -2.188561 4.274296 3.308908 10.13345 -7.816316 1.310725 20.76121 7.233067 2.87453 -26.43395 10.36959 5.465455 -18.76995 11.60805 87.72383 37.58667 -20.58394 -0 0 12.1157 -6.869396 8.878561 5.121748 5.985472 -20.53656 -1.756399 -90.03704 21.56893 18.75475 0 0 -20.81331 13.95337 11.04984 -1.82549
1.609851 101.4714 10.81196 -0.3778088 2.442035 0.8641026 7.042426 -30.29193 8.054566 -0 26.61563 -0 -6.206691 -9.21467 -1.337699 -6.609247 12.35833 -20.4095 -0 6.77393 -0 12.82134 -17.87706 25.73656 -2.068463 -2.193755 4.273582 3.385132 10.20194 -7.919895 1.314221 20.69728 7.249652 2.858714 -26.60054 10.43201 5.461482 -18.74377 11.60537 88.06601 37.47439 -21.1913 -0 0 11.82475 -6.529093 8.917775 4.90806 6.034087 -20.70424 -1.865622 -90.08281 21.97617 18.80932 0 0 -21.4839 13.87617 10.95893 -1.477895
1.8744 100.8182 14.03326 -0.7808858 2.894297 1.11759 7.594288 -32.85274 6.999592 -0 23.05385 -0 -6.632164 -6.740708 -0.6585956 -6.25828 12.89461 -19.32214 -0 8.117318 -0 11.76767 -18.76408 24.19509 -1.956827 -2.174528 4.276015 3.439722 10.28578 -7.999535 1.317102 20.65509 7.240595 2.836259 -26.70169 10.4572 5.459471 -18.68693 11.58964 88.40213 37.37644 -21.75713 -0 0 11.49277 -6.257037 8.959006 4.732668 6.040679 -20.85403 -2.011982 -90.11313 22.37252 18.86603 0 0 -22.06756 13.74974 10.84279 -1.076924
2.13376 100.1907 17.82044 -1.160723 3.306433 1.523596 7.97972 -34.66379 5.7765 -0 19.4032 -0 -7.079134 -4.424336 -0.0490532 -5.908817 13.52398 -18.09333 -0 10.30179 -0 10.0516 -19.47427 22.11288 -1.834894 -2.141456 4.286129 3.470511 10.38067 -8.058367 1.31773 20.63302 7.206514 2.809361 -26.74149 10.4422 5.460373 -18.60842 11.56116 88.71785 37.27564 -22.27154 -0 0 11.15302 -6.063769 9.00238 4.593035 6.01574 -20.99028 -2.177567 -90.15191 22.75815 18.9462 0 0 -22.51989 13.56604 10.72975 -0.6206031
2.392199 99.71843 22.25956 -1.508996 3.549743 2.106396 8.079423 -35.05336 4.262723 -0 16.18351 -0 -7.621509 -2.455166 0.4042353 -5.55848 14.14951 -16.65673 -0 13.79709 -0 7.293665 -19.70136 19.25528 -1.708253 -2.09331 4.306901 3.469232 10.48464 -8.08846 1.314516 20.63763 7.140647 2.777764 -26.69979 10.37253 5.464345 -18.50769 11.519 88.98438 37.17091 -22.68814 -0 0 10.82788 -5.989272 9.047502 4.510228 5.953309 -21.10308 -2.35667 -90.19874 23.10839 19.05101 0 0 -22.77764 13.31327 10.62848 -0.1141615
2.65895 99.55628 27.39373 -1.905096 3.609966 2.820427 8.053048 -33.6586 2.860691 -0 14.28794 -0 -8.262252 -1.10102 0.4420942 -5.136576 14.4939 -15.02236 -0 19.09119 -0 3.306368 -18.95372 15.6824 -1.583773 -2.033473 4.344565 3.429141 10.59329 -8.083845 1.30591 20.67267 7.038894 2.741901 -26.56498 10.23774 5.470272 -18.3918 11.46395 89.16756 37.05453 -22.96054 -0 0 10.55349 -6.066877 9.094403 4.501036 5.85423 -21.18528 -2.536749 -90.26296 23.40777 19.19102 0 0 -22.78704 12.97887 10.55488 0.4406722
2.948013 99.79164 33.18061 -2.407026 3.436723 3.479242 8.177469 -30.62055 2.123544 -0 14.41699 -0 -9.013457 -0.372582 -0.03169036 -4.557076 13.99092 -13.18276 -0 26.49418 -0 -0.8591217 -16.39898 12.1301 -1.472677 -1.962876 4.407488 3.341432 10.70006 -8.032629 1.290559 20.74454 6.895917 2.701324 -26.31879 10.02552 5.475144 -18.27046 11.39828 89.21577 36.92412 -23.01335 -0 0 10.3758 -6.342076 9.142248 4.594469 5.715198 -21.2214 -2.70456 -90.34734 23.63017 19.37239 0 0 -22.48852 12.55066 10.51966 1.034998
3.256474 100.3923 39.41689 -2.983474 2.901374 3.774237 8.634251 -26.72376 2.383757 -0 16.16282 -0 -9.783352 -0.255431 -0.8426522 -3.704547 12.04932 -11.40662 -0 35.7296 -0 -3.621705 -11.90469 9.697872 -1.391682 -1.883647 4.507754 3.197381 10.7936 -7.917964 1.268035 20.8604 6.708159 2.654855 -25.94421 9.728086 5.473571 -18.16167 11.32709 89.05754 36.78011 -22.74251 -0 0 10.35912 -6.861223 9.188305 4.826266 5.532986 -21.18793 -2.840928 -90.45584 23.74441 19.6042 0 0 -21.82391 12.02212 10.53369 1.648893
3.552452 101.2907 45.70919 -3.284933 1.783968 3.47571 9.036035 -22.32522 2.982198 -0 17.33079 -0 -10.251 -1.204865 -1.558456 -2.775995 8.435634 -10.20489 -0 45.82339 -0 -4.725313 -7.039072 8.730703 -1.363483 -1.799057 4.660501 2.989989 10.85684 -7.716824 1.240044 21.02846 6.474831 2.599411 -25.42692 9.347085 5.458011 -18.0919 11.25858 88.60254 36.62841 -22.01338 -0 0 10.58399 -7.662104 9.225982 5.236417 5.302661 -21.04975 -2.921222 -90.59327 23.71274 19.89834 0 0 -20.73996 11.39986 10.60616 2.243049
3.820214 102.481 51.67144 -2.822743 0.2612443 2.721772 8.604779 -16.96222 2.959322 -0 15.99577 -0 -10.02582 -3.504935 -1.858721 -2.389539 3.267501 -9.585212 -0 55.17278 -0 -5.280234 -4.089505 8.69661 -1.41029 -1.715179 4.881211 2.717721 10.87011 -7.405965 1.211306 21.25455 6.200458 2.530088 -24.76407 8.900282 5.420187 -18.09298 11.20222 87.76828 36.47559 -20.69854 -0 0 11.12888 -8.749514 9.243886 5.852143 5.02023 -20.7684 -2.920013 -90.77086 23.50657 20.27367 0 0 -19.21124 10.70694 10.74316 2.766816
4.068496 103.8562 57.22139 -1.63946 -1.133672 1.905797 7.265492 -10.91804 2.426948 -0 13.0728 -0 -9.238855 -5.914593 -1.675429 -2.590534 -2.990148 -8.79196 -0 61.61 -0 -5.425083 -3.440451 9.213091 -1.541424 -1.64048 5.179447 2.387162 10.82012 -6.974615 1.188138 21.53584 5.896854 2.443077 -23.97161 8.420495 5.353156 -18.19184 11.16448 86.53043 36.31956 -18.74921 -0 0 12.03302 -10.07914 9.228759 6.668243 4.68749 -20.32296 -2.822921 -91.00454 23.12859 20.75078 0 0 -17.27558 9.973703 10.94008 3.186801
4.27554 105.1169 62.51073 -0.3514767 -2.23643 1.254194 5.798886 -5.227 2.018922 -0 10.48468 -0 -8.414242 -7.427873 -1.269433 -2.566182 -9.385484 -7.479399 -0 63.23893 -0 -4.902738 -3.877808 10.31767 -1.745942 -1.583149 5.551958 2.012874 10.70727 -6.435068 1.175423 21.85683 5.582902 2.339622 -23.08505 7.946036 5.253347 -18.39932 11.14622 84.95564 36.14657 -16.24492 -0 0 13.26904 -11.56631 9.171831 7.641625 4.316254 -19.72727 -2.635133 -91.30373 22.61764 21.33615 0 0 -15.04946 9.226046 11.17536 3.506975
4.427038 105.9284 67.67098 0.5223751 -3.175659 0.761848 4.85919 -0.2565966 1.929886 -0 8.775575 -0 -7.763556 -8.615064 -0.9975985 -1.781634 -15.12161 -5.941769 -0 59.54799 -0 -4.162019 -4.534801 12.00744 -1.998307 -1.547496 5.979734 1.614593 10.54423 -5.819431 1.175666 22.19366 5.279962 2.225688 -22.14956 7.510962 5.122765 -18.70497 11.14387 83.18015 35.94344 -13.36696 -0 0 14.74995 -13.11133 9.072783 8.705727 3.925143 -19.02183 -2.378277 -91.66068 22.02301 22.00922 0 0 -12.6894 8.487657 11.41568 3.749199
4.561018 106.0748 72.76165 0.8257941 -3.903336 0.3380423 4.571863 4.159646 2.017187 -0 7.640092 -0 -7.184814 -10.33985 -0.9324515 -0.3419381 -19.94892 -4.508767 -0 51.34322 -0 -3.667068 -5.134676 13.98334 -2.267342 -1.532203 6.430244 1.21338 10.34971 -5.16877 1.190449 22.5219 5.006384 2.109116 -21.20848 7.141202 4.970513 -19.07824 11.1513 81.36516 35.71289 -10.33923 -0 0 16.35413 -14.6173 8.939611 9.786296 3.533751 -18.25449 -2.08167 -92.05245 21.37983 22.72576 0 0 -10.33626 7.787697 11.62993 3.924662
4.746796 105.5242 77.84793 0.6307733 -4.196599 -0.1056293 4.724304 8.091795 2.081034 -0 6.926792 -0 -6.595672 -12.82017 -0.8906803 1.358062 -23.84702 -3.324008 -0 40.32912 -0 -3.460488 -5.554525 15.79457 -2.52124 -1.53021 6.863154 0.8278505 10.14341 -4.524487 1.221458 22.82157 4.774905 1.998639 -20.29768 6.853346 4.811831 -19.47399 11.16081 79.66307 35.47872 -7.385085 -0 0 17.94767 -15.99957 8.787072 10.81114 3.16035 -17.47019 -1.775923 -92.44955 20.70731 23.43005 0 0 -8.089897 7.159758 11.8004 4.029226
5.047358 104.4323 83.04991 0.1251511 -3.92416 -0.615291 4.984672 11.41195 2.022201 -0 6.864592 -0 -5.986199 -15.59752 -0.6769377 2.865572 -26.69827 -2.428188 -0 28.85935 -0 -3.34971 -5.696601 17.09589 -2.731785 -1.529577 7.237382 0.4719089 9.942023 -3.922881 1.270193 23.07941 4.592936 1.904347 -19.44526 6.654266 4.664945 -19.84103 11.16458 78.19466 35.28074 -4.698244 -0 0 19.40234 -17.19269 8.6341 11.71811 2.822018 -16.7087 -1.489003 -92.8216 20.01899 24.06502 0 0 -6.014031 6.636659 11.92684 4.051977
5.495689 103.0781 88.53304 -0.4324562 -3.243369 -1.198265 5.017095 14.02409 1.86091 -0 7.807804 -0 -5.374753 -17.81869 -0.239559 3.756285 -28.31111 -1.909425 -0 19.38274 -0 -3.180708 -5.582154 17.83696 -2.87941 -1.515641 7.517276 0.1549621 9.756903 -3.392367 1.33693 23.28944 4.464311 1.837594 -18.67429 6.542106 4.547439 -20.13133 11.15675 77.03673 35.16376 -2.424308 -0 0 20.60925 -18.15442 8.500061 12.46176 2.534566 -16.005 -1.244077 -93.13815 19.33138 24.57698 0 0 -4.154993 6.247817 12.02307 3.981251
6.087874 101.7495 94.4609 -0.7687151 -2.566135 -1.847461 4.556893 16.06995 1.653149 -0 9.9454 -0 -4.833152 -18.5881 0.3313329 3.714868 -28.64256 -1.987028 -0 13.54481 -0 -2.970379 -5.410744 18.25583 -2.95696 -1.474483 7.676791 -0.1159825 9.594723 -2.953528 1.419598 23.4515 4.39103 1.809516 -18.00593 6.508415 4.473343 -20.30781 11.13519 76.2227 35.16484 -0.656665 -0 0 21.48654 -18.86529 8.400911 13.01595 2.311613 -15.39011 -1.059275 -93.36723 18.6667 24.91728 0 0 -2.561024 6.018514 12.10761 3.806248
6.792189 100.6593 100.9332 -0.6679865 -2.326023 -2.52644 3.455419 17.86302 1.465351 -0 13.354 -0 -4.487691 -17.20601 0.8766534 2.61458 -27.88118 -2.920155 -0 11.65096 -0 -2.822912 -5.454285 18.66121 -2.969866 -1.396452 7.701024 -0.3334672 9.460505 -2.621731 1.513303 23.56815 4.373913 1.828484 -17.46151 6.540882 4.451526 -20.34798 11.10224 75.75528 35.30378 0.5520292 -0 0 21.97994 -19.32233 8.346805 13.37066 2.163555 -14.89218 -0.9489964 -93.47462 18.05076 25.04239 0 0 -1.296163 5.969036 12.19248 3.517291
